<mxfile host="app.diagrams.net" agent="Mozilla/5.0 (Windows NT 10.0; Win64; x64) AppleWebKit/537.36 (KHTML, like Gecko) Chrome/131.0.0.0 Safari/537.36" version="25.0.0">
  <diagram name="Page-1" id="xLfa3vr3PZcD3B_tmmqh">
    <mxGraphModel dx="1221" dy="861" grid="0" gridSize="10" guides="1" tooltips="1" connect="1" arrows="1" fold="1" page="0" pageScale="1" pageWidth="850" pageHeight="1100" math="0" shadow="0">
      <root>
        <mxCell id="0" />
        <mxCell id="1" parent="0" />
        <mxCell id="M0RcoXF8gDmWCO9cIfVg-90" style="edgeStyle=orthogonalEdgeStyle;rounded=0;orthogonalLoop=1;jettySize=auto;html=1;exitX=0.5;exitY=1;exitDx=0;exitDy=0;entryX=0.5;entryY=0;entryDx=0;entryDy=0;" parent="1" source="M0RcoXF8gDmWCO9cIfVg-1" target="M0RcoXF8gDmWCO9cIfVg-2" edge="1">
          <mxGeometry relative="1" as="geometry" />
        </mxCell>
        <mxCell id="M0RcoXF8gDmWCO9cIfVg-91" style="edgeStyle=orthogonalEdgeStyle;rounded=0;orthogonalLoop=1;jettySize=auto;html=1;exitX=0.5;exitY=1;exitDx=0;exitDy=0;" parent="1" source="M0RcoXF8gDmWCO9cIfVg-1" target="M0RcoXF8gDmWCO9cIfVg-3" edge="1">
          <mxGeometry relative="1" as="geometry" />
        </mxCell>
        <mxCell id="M0RcoXF8gDmWCO9cIfVg-93" style="edgeStyle=orthogonalEdgeStyle;rounded=0;orthogonalLoop=1;jettySize=auto;html=1;exitX=0.5;exitY=1;exitDx=0;exitDy=0;" parent="1" source="M0RcoXF8gDmWCO9cIfVg-1" target="M0RcoXF8gDmWCO9cIfVg-8" edge="1">
          <mxGeometry relative="1" as="geometry" />
        </mxCell>
        <mxCell id="M0RcoXF8gDmWCO9cIfVg-94" style="edgeStyle=orthogonalEdgeStyle;rounded=0;orthogonalLoop=1;jettySize=auto;html=1;exitX=0.5;exitY=1;exitDx=0;exitDy=0;entryX=0.5;entryY=0;entryDx=0;entryDy=0;" parent="1" source="M0RcoXF8gDmWCO9cIfVg-1" target="M0RcoXF8gDmWCO9cIfVg-7" edge="1">
          <mxGeometry relative="1" as="geometry" />
        </mxCell>
        <mxCell id="M0RcoXF8gDmWCO9cIfVg-1" value="1. OnSite" style="rounded=0;whiteSpace=wrap;html=1;" parent="1" vertex="1">
          <mxGeometry x="673" y="189" width="120" height="50" as="geometry" />
        </mxCell>
        <mxCell id="M0RcoXF8gDmWCO9cIfVg-10" style="edgeStyle=orthogonalEdgeStyle;rounded=0;orthogonalLoop=1;jettySize=auto;html=1;exitX=0.25;exitY=1;exitDx=0;exitDy=0;entryX=0;entryY=0.5;entryDx=0;entryDy=0;" parent="1" source="M0RcoXF8gDmWCO9cIfVg-2" target="M0RcoXF8gDmWCO9cIfVg-9" edge="1">
          <mxGeometry relative="1" as="geometry">
            <Array as="points">
              <mxPoint x="293" y="349" />
              <mxPoint x="293" y="394" />
            </Array>
          </mxGeometry>
        </mxCell>
        <mxCell id="M0RcoXF8gDmWCO9cIfVg-2" value="1.1&lt;span style=&quot;background-color: initial;&quot;&gt;&amp;nbsp;Project management and planning&lt;/span&gt;" style="rounded=0;whiteSpace=wrap;html=1;" parent="1" vertex="1">
          <mxGeometry x="273" y="299" width="110" height="50" as="geometry" />
        </mxCell>
        <mxCell id="M0RcoXF8gDmWCO9cIfVg-32" style="edgeStyle=orthogonalEdgeStyle;rounded=0;orthogonalLoop=1;jettySize=auto;html=1;exitX=0.25;exitY=1;exitDx=0;exitDy=0;entryX=0;entryY=0.5;entryDx=0;entryDy=0;" parent="1" source="M0RcoXF8gDmWCO9cIfVg-3" target="M0RcoXF8gDmWCO9cIfVg-26" edge="1">
          <mxGeometry relative="1" as="geometry">
            <Array as="points">
              <mxPoint x="483" y="349" />
              <mxPoint x="483" y="394" />
            </Array>
          </mxGeometry>
        </mxCell>
        <mxCell id="M0RcoXF8gDmWCO9cIfVg-34" style="edgeStyle=orthogonalEdgeStyle;rounded=0;orthogonalLoop=1;jettySize=auto;html=1;exitX=0.25;exitY=1;exitDx=0;exitDy=0;entryX=0;entryY=0.5;entryDx=0;entryDy=0;" parent="1" source="M0RcoXF8gDmWCO9cIfVg-3" target="M0RcoXF8gDmWCO9cIfVg-29" edge="1">
          <mxGeometry relative="1" as="geometry">
            <Array as="points">
              <mxPoint x="483" y="349" />
              <mxPoint x="483" y="675" />
            </Array>
          </mxGeometry>
        </mxCell>
        <mxCell id="M0RcoXF8gDmWCO9cIfVg-3" value="1.2 Design and Prototype" style="rounded=0;whiteSpace=wrap;html=1;" parent="1" vertex="1">
          <mxGeometry x="463" y="299" width="110" height="50" as="geometry" />
        </mxCell>
        <mxCell id="M0RcoXF8gDmWCO9cIfVg-6" value="1.3.1.1 Build Restful APIs for all frontend functionalities " style="rounded=0;whiteSpace=wrap;html=1;" parent="1" vertex="1">
          <mxGeometry x="763" y="439" width="110" height="50" as="geometry" />
        </mxCell>
        <mxCell id="M0RcoXF8gDmWCO9cIfVg-7" value="1.4 Testing" style="rounded=0;whiteSpace=wrap;html=1;" parent="1" vertex="1">
          <mxGeometry x="893" y="299" width="110" height="50" as="geometry" />
        </mxCell>
        <mxCell id="M0RcoXF8gDmWCO9cIfVg-8" value="1.5 Deployment and&lt;div&gt;Documentation&lt;/div&gt;" style="rounded=0;whiteSpace=wrap;html=1;" parent="1" vertex="1">
          <mxGeometry x="1103" y="299" width="110" height="50" as="geometry" />
        </mxCell>
        <mxCell id="M0RcoXF8gDmWCO9cIfVg-9" value="1.1.1 Initial Requirement Gathering" style="rounded=0;whiteSpace=wrap;html=1;" parent="1" vertex="1">
          <mxGeometry x="313" y="369" width="110" height="50" as="geometry" />
        </mxCell>
        <mxCell id="M0RcoXF8gDmWCO9cIfVg-14" style="edgeStyle=orthogonalEdgeStyle;rounded=0;orthogonalLoop=1;jettySize=auto;html=1;exitX=0.25;exitY=1;exitDx=0;exitDy=0;entryX=0;entryY=0.5;entryDx=0;entryDy=0;" parent="1" source="M0RcoXF8gDmWCO9cIfVg-11" target="M0RcoXF8gDmWCO9cIfVg-12" edge="1">
          <mxGeometry relative="1" as="geometry">
            <Array as="points">
              <mxPoint x="333" y="489" />
              <mxPoint x="333" y="534" />
            </Array>
          </mxGeometry>
        </mxCell>
        <mxCell id="M0RcoXF8gDmWCO9cIfVg-11" value="1.1.2 Define Product Backlog" style="rounded=0;whiteSpace=wrap;html=1;" parent="1" vertex="1">
          <mxGeometry x="313" y="439" width="110" height="50" as="geometry" />
        </mxCell>
        <mxCell id="M0RcoXF8gDmWCO9cIfVg-12" value="1.1.2.1 Features and Requirements" style="rounded=0;whiteSpace=wrap;html=1;" parent="1" vertex="1">
          <mxGeometry x="353" y="509" width="110" height="50" as="geometry" />
        </mxCell>
        <mxCell id="M0RcoXF8gDmWCO9cIfVg-13" style="edgeStyle=orthogonalEdgeStyle;rounded=0;orthogonalLoop=1;jettySize=auto;html=1;exitX=0;exitY=0.5;exitDx=0;exitDy=0;endArrow=none;endFill=0;startArrow=classic;startFill=1;" parent="1" source="M0RcoXF8gDmWCO9cIfVg-11" edge="1">
          <mxGeometry relative="1" as="geometry">
            <mxPoint x="293" y="349" as="targetPoint" />
          </mxGeometry>
        </mxCell>
        <mxCell id="M0RcoXF8gDmWCO9cIfVg-16" style="edgeStyle=orthogonalEdgeStyle;rounded=0;orthogonalLoop=1;jettySize=auto;html=1;exitX=0;exitY=0.5;exitDx=0;exitDy=0;endArrow=none;endFill=0;startArrow=classic;startFill=1;" parent="1" source="M0RcoXF8gDmWCO9cIfVg-15" edge="1">
          <mxGeometry relative="1" as="geometry">
            <mxPoint x="293" y="359" as="targetPoint" />
          </mxGeometry>
        </mxCell>
        <mxCell id="M0RcoXF8gDmWCO9cIfVg-15" value="1.1.3 Meeting with stackholder" style="rounded=0;whiteSpace=wrap;html=1;" parent="1" vertex="1">
          <mxGeometry x="313" y="579" width="110" height="50" as="geometry" />
        </mxCell>
        <mxCell id="M0RcoXF8gDmWCO9cIfVg-18" style="edgeStyle=orthogonalEdgeStyle;rounded=0;orthogonalLoop=1;jettySize=auto;html=1;exitX=0;exitY=0.5;exitDx=0;exitDy=0;startArrow=classic;startFill=1;endArrow=none;endFill=0;" parent="1" source="M0RcoXF8gDmWCO9cIfVg-17" edge="1">
          <mxGeometry relative="1" as="geometry">
            <mxPoint x="293" y="589" as="targetPoint" />
          </mxGeometry>
        </mxCell>
        <mxCell id="M0RcoXF8gDmWCO9cIfVg-17" value="1.1.4 Sprint planning" style="rounded=0;whiteSpace=wrap;html=1;" parent="1" vertex="1">
          <mxGeometry x="313" y="650" width="110" height="50" as="geometry" />
        </mxCell>
        <mxCell id="M0RcoXF8gDmWCO9cIfVg-19" value="1.2.2 UI/UX design" style="rounded=0;whiteSpace=wrap;html=1;" parent="1" vertex="1">
          <mxGeometry x="503" y="440" width="110" height="50" as="geometry" />
        </mxCell>
        <mxCell id="M0RcoXF8gDmWCO9cIfVg-20" value="1.2.2.1 Wireframe design" style="rounded=0;whiteSpace=wrap;html=1;" parent="1" vertex="1">
          <mxGeometry x="538" y="510" width="110" height="50" as="geometry" />
        </mxCell>
        <mxCell id="M0RcoXF8gDmWCO9cIfVg-23" style="edgeStyle=orthogonalEdgeStyle;rounded=0;orthogonalLoop=1;jettySize=auto;html=1;exitX=0.25;exitY=1;exitDx=0;exitDy=0;entryX=-0.004;entryY=0.571;entryDx=0;entryDy=0;entryPerimeter=0;" parent="1" source="M0RcoXF8gDmWCO9cIfVg-19" target="M0RcoXF8gDmWCO9cIfVg-20" edge="1">
          <mxGeometry relative="1" as="geometry">
            <Array as="points">
              <mxPoint x="518" y="490" />
              <mxPoint x="518" y="539" />
            </Array>
          </mxGeometry>
        </mxCell>
        <mxCell id="M0RcoXF8gDmWCO9cIfVg-25" style="edgeStyle=orthogonalEdgeStyle;rounded=0;orthogonalLoop=1;jettySize=auto;html=1;exitX=0;exitY=0.5;exitDx=0;exitDy=0;startArrow=classic;startFill=1;endArrow=none;endFill=0;" parent="1" source="M0RcoXF8gDmWCO9cIfVg-24" edge="1">
          <mxGeometry relative="1" as="geometry">
            <mxPoint x="518" y="510.0000000000001" as="targetPoint" />
          </mxGeometry>
        </mxCell>
        <mxCell id="M0RcoXF8gDmWCO9cIfVg-24" value="1.2.2.2 Prototype design" style="rounded=0;whiteSpace=wrap;html=1;" parent="1" vertex="1">
          <mxGeometry x="538" y="580" width="110" height="50" as="geometry" />
        </mxCell>
        <mxCell id="M0RcoXF8gDmWCO9cIfVg-26" value="1.2.1 Use case design" style="rounded=0;whiteSpace=wrap;html=1;" parent="1" vertex="1">
          <mxGeometry x="503" y="369" width="110" height="50" as="geometry" />
        </mxCell>
        <mxCell id="M0RcoXF8gDmWCO9cIfVg-29" value="1.2.3 Database design" style="rounded=0;whiteSpace=wrap;html=1;" parent="1" vertex="1">
          <mxGeometry x="503" y="650" width="110" height="50" as="geometry" />
        </mxCell>
        <mxCell id="M0RcoXF8gDmWCO9cIfVg-33" style="edgeStyle=orthogonalEdgeStyle;rounded=0;orthogonalLoop=1;jettySize=auto;html=1;exitX=0.25;exitY=1;exitDx=0;exitDy=0;entryX=0.008;entryY=0.531;entryDx=0;entryDy=0;entryPerimeter=0;" parent="1" source="M0RcoXF8gDmWCO9cIfVg-3" target="M0RcoXF8gDmWCO9cIfVg-19" edge="1">
          <mxGeometry relative="1" as="geometry">
            <Array as="points">
              <mxPoint x="483" y="349" />
              <mxPoint x="483" y="467" />
            </Array>
          </mxGeometry>
        </mxCell>
        <mxCell id="M0RcoXF8gDmWCO9cIfVg-35" value="1.3.1.3&amp;nbsp;File Storage and Management" style="rounded=0;whiteSpace=wrap;html=1;" parent="1" vertex="1">
          <mxGeometry x="763" y="579" width="110" height="50" as="geometry" />
        </mxCell>
        <mxCell id="M0RcoXF8gDmWCO9cIfVg-61" style="edgeStyle=orthogonalEdgeStyle;rounded=0;orthogonalLoop=1;jettySize=auto;html=1;exitX=0.25;exitY=1;exitDx=0;exitDy=0;entryX=0;entryY=0.5;entryDx=0;entryDy=0;" parent="1" source="M0RcoXF8gDmWCO9cIfVg-56" target="M0RcoXF8gDmWCO9cIfVg-57" edge="1">
          <mxGeometry relative="1" as="geometry">
            <Array as="points">
              <mxPoint x="753" y="700" />
              <mxPoint x="753" y="745" />
            </Array>
          </mxGeometry>
        </mxCell>
        <mxCell id="M0RcoXF8gDmWCO9cIfVg-63" style="edgeStyle=orthogonalEdgeStyle;rounded=0;orthogonalLoop=1;jettySize=auto;html=1;exitX=0.25;exitY=1;exitDx=0;exitDy=0;entryX=0;entryY=0.5;entryDx=0;entryDy=0;" parent="1" source="M0RcoXF8gDmWCO9cIfVg-56" target="M0RcoXF8gDmWCO9cIfVg-59" edge="1">
          <mxGeometry relative="1" as="geometry">
            <Array as="points">
              <mxPoint x="753" y="700" />
              <mxPoint x="753" y="865" />
            </Array>
          </mxGeometry>
        </mxCell>
        <mxCell id="M0RcoXF8gDmWCO9cIfVg-56" value="1.3.2 Frontend development" style="rounded=0;whiteSpace=wrap;html=1;" parent="1" vertex="1">
          <mxGeometry x="728" y="650" width="110" height="50" as="geometry" />
        </mxCell>
        <mxCell id="M0RcoXF8gDmWCO9cIfVg-57" value="1.3.2.1 Implement UI/UX" style="rounded=0;whiteSpace=wrap;html=1;" parent="1" vertex="1">
          <mxGeometry x="773" y="720" width="110" height="50" as="geometry" />
        </mxCell>
        <mxCell id="M0RcoXF8gDmWCO9cIfVg-58" value="1.3.2.2 Develop builder side pages&amp;nbsp;&amp;nbsp;" style="rounded=0;whiteSpace=wrap;html=1;" parent="1" vertex="1">
          <mxGeometry x="773" y="780" width="110" height="50" as="geometry" />
        </mxCell>
        <mxCell id="M0RcoXF8gDmWCO9cIfVg-59" value="1.3.2.3 Develop user side pages&amp;nbsp;&amp;nbsp;" style="rounded=0;whiteSpace=wrap;html=1;" parent="1" vertex="1">
          <mxGeometry x="773" y="840" width="110" height="50" as="geometry" />
        </mxCell>
        <mxCell id="M0RcoXF8gDmWCO9cIfVg-72" style="edgeStyle=orthogonalEdgeStyle;rounded=0;orthogonalLoop=1;jettySize=auto;html=1;exitX=0.25;exitY=1;exitDx=0;exitDy=0;entryX=0;entryY=0.5;entryDx=0;entryDy=0;" parent="1" source="M0RcoXF8gDmWCO9cIfVg-60" target="M0RcoXF8gDmWCO9cIfVg-68" edge="1">
          <mxGeometry relative="1" as="geometry">
            <Array as="points">
              <mxPoint x="743" y="419" />
              <mxPoint x="743" y="534" />
            </Array>
          </mxGeometry>
        </mxCell>
        <mxCell id="M0RcoXF8gDmWCO9cIfVg-73" style="edgeStyle=orthogonalEdgeStyle;rounded=0;orthogonalLoop=1;jettySize=auto;html=1;exitX=0.25;exitY=1;exitDx=0;exitDy=0;entryX=0;entryY=0.5;entryDx=0;entryDy=0;" parent="1" source="M0RcoXF8gDmWCO9cIfVg-60" target="M0RcoXF8gDmWCO9cIfVg-35" edge="1">
          <mxGeometry relative="1" as="geometry">
            <Array as="points">
              <mxPoint x="743" y="419" />
              <mxPoint x="743" y="604" />
            </Array>
          </mxGeometry>
        </mxCell>
        <mxCell id="M0RcoXF8gDmWCO9cIfVg-60" value="1.3.1 Backend development" style="rounded=0;whiteSpace=wrap;html=1;" parent="1" vertex="1">
          <mxGeometry x="728" y="369" width="110" height="50" as="geometry" />
        </mxCell>
        <mxCell id="M0RcoXF8gDmWCO9cIfVg-62" style="edgeStyle=orthogonalEdgeStyle;rounded=0;orthogonalLoop=1;jettySize=auto;html=1;exitX=0.25;exitY=1;exitDx=0;exitDy=0;entryX=0.003;entryY=0.574;entryDx=0;entryDy=0;entryPerimeter=0;" parent="1" source="M0RcoXF8gDmWCO9cIfVg-56" target="M0RcoXF8gDmWCO9cIfVg-58" edge="1">
          <mxGeometry relative="1" as="geometry">
            <Array as="points">
              <mxPoint x="753" y="700" />
              <mxPoint x="753" y="809" />
            </Array>
          </mxGeometry>
        </mxCell>
        <mxCell id="M0RcoXF8gDmWCO9cIfVg-75" style="edgeStyle=orthogonalEdgeStyle;rounded=0;orthogonalLoop=1;jettySize=auto;html=1;exitX=0.25;exitY=1;exitDx=0;exitDy=0;entryX=0;entryY=0.5;entryDx=0;entryDy=0;" parent="1" source="M0RcoXF8gDmWCO9cIfVg-64" target="M0RcoXF8gDmWCO9cIfVg-56" edge="1">
          <mxGeometry relative="1" as="geometry">
            <Array as="points">
              <mxPoint x="703" y="349" />
              <mxPoint x="703" y="675" />
            </Array>
          </mxGeometry>
        </mxCell>
        <mxCell id="M0RcoXF8gDmWCO9cIfVg-64" value="1.3 Development" style="rounded=0;whiteSpace=wrap;html=1;" parent="1" vertex="1">
          <mxGeometry x="683" y="299" width="110" height="50" as="geometry" />
        </mxCell>
        <mxCell id="M0RcoXF8gDmWCO9cIfVg-68" value="1.3.1.2 Database management" style="rounded=0;whiteSpace=wrap;html=1;" parent="1" vertex="1">
          <mxGeometry x="763" y="509" width="110" height="50" as="geometry" />
        </mxCell>
        <mxCell id="M0RcoXF8gDmWCO9cIfVg-71" style="edgeStyle=orthogonalEdgeStyle;rounded=0;orthogonalLoop=1;jettySize=auto;html=1;exitX=0.25;exitY=1;exitDx=0;exitDy=0;entryX=0.003;entryY=0.581;entryDx=0;entryDy=0;entryPerimeter=0;" parent="1" source="M0RcoXF8gDmWCO9cIfVg-60" target="M0RcoXF8gDmWCO9cIfVg-6" edge="1">
          <mxGeometry relative="1" as="geometry">
            <Array as="points">
              <mxPoint x="743" y="419" />
              <mxPoint x="743" y="468" />
            </Array>
          </mxGeometry>
        </mxCell>
        <mxCell id="M0RcoXF8gDmWCO9cIfVg-77" value="1.4.1 Integration testing" style="rounded=0;whiteSpace=wrap;html=1;" parent="1" vertex="1">
          <mxGeometry x="933" y="369" width="110" height="50" as="geometry" />
        </mxCell>
        <mxCell id="M0RcoXF8gDmWCO9cIfVg-78" value="1.4.2 Unit testing" style="rounded=0;whiteSpace=wrap;html=1;" parent="1" vertex="1">
          <mxGeometry x="933" y="449" width="110" height="50" as="geometry" />
        </mxCell>
        <mxCell id="M0RcoXF8gDmWCO9cIfVg-82" style="edgeStyle=orthogonalEdgeStyle;rounded=0;orthogonalLoop=1;jettySize=auto;html=1;exitX=0.25;exitY=1;exitDx=0;exitDy=0;entryX=0.001;entryY=0.55;entryDx=0;entryDy=0;entryPerimeter=0;" parent="1" source="M0RcoXF8gDmWCO9cIfVg-64" target="M0RcoXF8gDmWCO9cIfVg-60" edge="1">
          <mxGeometry relative="1" as="geometry">
            <Array as="points">
              <mxPoint x="703" y="349" />
              <mxPoint x="703" y="396" />
            </Array>
          </mxGeometry>
        </mxCell>
        <mxCell id="M0RcoXF8gDmWCO9cIfVg-83" style="edgeStyle=orthogonalEdgeStyle;rounded=0;orthogonalLoop=1;jettySize=auto;html=1;exitX=0.25;exitY=1;exitDx=0;exitDy=0;entryX=-0.009;entryY=0.593;entryDx=0;entryDy=0;entryPerimeter=0;" parent="1" source="M0RcoXF8gDmWCO9cIfVg-7" target="M0RcoXF8gDmWCO9cIfVg-77" edge="1">
          <mxGeometry relative="1" as="geometry">
            <Array as="points">
              <mxPoint x="913" y="349" />
              <mxPoint x="913" y="399" />
            </Array>
          </mxGeometry>
        </mxCell>
        <mxCell id="M0RcoXF8gDmWCO9cIfVg-84" style="edgeStyle=orthogonalEdgeStyle;rounded=0;orthogonalLoop=1;jettySize=auto;html=1;exitX=0.25;exitY=1;exitDx=0;exitDy=0;entryX=0;entryY=0.6;entryDx=0;entryDy=0;entryPerimeter=0;" parent="1" source="M0RcoXF8gDmWCO9cIfVg-7" target="M0RcoXF8gDmWCO9cIfVg-78" edge="1">
          <mxGeometry relative="1" as="geometry">
            <Array as="points">
              <mxPoint x="913" y="349" />
              <mxPoint x="913" y="479" />
            </Array>
          </mxGeometry>
        </mxCell>
        <mxCell id="M0RcoXF8gDmWCO9cIfVg-85" value="1.5.1 Deployment" style="rounded=0;whiteSpace=wrap;html=1;" parent="1" vertex="1">
          <mxGeometry x="1143" y="369" width="110" height="50" as="geometry" />
        </mxCell>
        <mxCell id="9ifA0DVTPysndAkpjfLu-7" style="edgeStyle=orthogonalEdgeStyle;rounded=0;orthogonalLoop=1;jettySize=auto;html=1;exitX=0.25;exitY=1;exitDx=0;exitDy=0;entryX=0;entryY=0.5;entryDx=0;entryDy=0;" edge="1" parent="1" source="M0RcoXF8gDmWCO9cIfVg-86" target="9ifA0DVTPysndAkpjfLu-3">
          <mxGeometry relative="1" as="geometry">
            <Array as="points">
              <mxPoint x="1163" y="499" />
              <mxPoint x="1163" y="594" />
            </Array>
          </mxGeometry>
        </mxCell>
        <mxCell id="9ifA0DVTPysndAkpjfLu-8" style="edgeStyle=orthogonalEdgeStyle;rounded=0;orthogonalLoop=1;jettySize=auto;html=1;exitX=0.25;exitY=1;exitDx=0;exitDy=0;entryX=0;entryY=0.5;entryDx=0;entryDy=0;" edge="1" parent="1" source="M0RcoXF8gDmWCO9cIfVg-86" target="9ifA0DVTPysndAkpjfLu-4">
          <mxGeometry relative="1" as="geometry">
            <Array as="points">
              <mxPoint x="1163" y="499" />
              <mxPoint x="1163" y="655" />
            </Array>
          </mxGeometry>
        </mxCell>
        <mxCell id="9ifA0DVTPysndAkpjfLu-9" style="edgeStyle=orthogonalEdgeStyle;rounded=0;orthogonalLoop=1;jettySize=auto;html=1;exitX=0.25;exitY=1;exitDx=0;exitDy=0;entryX=0;entryY=0.5;entryDx=0;entryDy=0;" edge="1" parent="1" source="M0RcoXF8gDmWCO9cIfVg-86" target="9ifA0DVTPysndAkpjfLu-5">
          <mxGeometry relative="1" as="geometry">
            <Array as="points">
              <mxPoint x="1163" y="499" />
              <mxPoint x="1163" y="714" />
            </Array>
          </mxGeometry>
        </mxCell>
        <mxCell id="M0RcoXF8gDmWCO9cIfVg-86" value="1.5.2 Documentation" style="rounded=0;whiteSpace=wrap;html=1;" parent="1" vertex="1">
          <mxGeometry x="1143" y="449" width="110" height="50" as="geometry" />
        </mxCell>
        <mxCell id="M0RcoXF8gDmWCO9cIfVg-87" style="edgeStyle=orthogonalEdgeStyle;rounded=0;orthogonalLoop=1;jettySize=auto;html=1;exitX=0.25;exitY=1;exitDx=0;exitDy=0;entryX=-0.007;entryY=0.593;entryDx=0;entryDy=0;entryPerimeter=0;" parent="1" source="M0RcoXF8gDmWCO9cIfVg-8" target="M0RcoXF8gDmWCO9cIfVg-85" edge="1">
          <mxGeometry relative="1" as="geometry">
            <Array as="points">
              <mxPoint x="1123" y="349" />
              <mxPoint x="1123" y="399" />
            </Array>
          </mxGeometry>
        </mxCell>
        <mxCell id="M0RcoXF8gDmWCO9cIfVg-88" style="edgeStyle=orthogonalEdgeStyle;rounded=0;orthogonalLoop=1;jettySize=auto;html=1;exitX=0.25;exitY=1;exitDx=0;exitDy=0;entryX=0;entryY=0.6;entryDx=0;entryDy=0;entryPerimeter=0;" parent="1" source="M0RcoXF8gDmWCO9cIfVg-8" target="M0RcoXF8gDmWCO9cIfVg-86" edge="1">
          <mxGeometry relative="1" as="geometry">
            <Array as="points">
              <mxPoint x="1123" y="349" />
              <mxPoint x="1123" y="479" />
            </Array>
          </mxGeometry>
        </mxCell>
        <mxCell id="M0RcoXF8gDmWCO9cIfVg-92" style="edgeStyle=orthogonalEdgeStyle;rounded=0;orthogonalLoop=1;jettySize=auto;html=1;exitX=0.5;exitY=1;exitDx=0;exitDy=0;entryX=0.455;entryY=0.2;entryDx=0;entryDy=0;entryPerimeter=0;" parent="1" source="M0RcoXF8gDmWCO9cIfVg-1" target="M0RcoXF8gDmWCO9cIfVg-64" edge="1">
          <mxGeometry relative="1" as="geometry" />
        </mxCell>
        <mxCell id="M0RcoXF8gDmWCO9cIfVg-95" value="1.3.3 Integrate frontend backend" style="rounded=0;whiteSpace=wrap;html=1;" parent="1" vertex="1">
          <mxGeometry x="739" y="907" width="110" height="50" as="geometry" />
        </mxCell>
        <mxCell id="M0RcoXF8gDmWCO9cIfVg-97" style="edgeStyle=orthogonalEdgeStyle;rounded=0;orthogonalLoop=1;jettySize=auto;html=1;exitX=0.25;exitY=1;exitDx=0;exitDy=0;entryX=0.002;entryY=0.577;entryDx=0;entryDy=0;entryPerimeter=0;" parent="1" source="M0RcoXF8gDmWCO9cIfVg-64" target="M0RcoXF8gDmWCO9cIfVg-95" edge="1">
          <mxGeometry relative="1" as="geometry">
            <Array as="points">
              <mxPoint x="703" y="349" />
              <mxPoint x="703" y="936" />
            </Array>
          </mxGeometry>
        </mxCell>
        <mxCell id="9ifA0DVTPysndAkpjfLu-2" value="1.5.2.1 Proposal document" style="rounded=0;whiteSpace=wrap;html=1;" vertex="1" parent="1">
          <mxGeometry x="1183" y="510" width="110" height="50" as="geometry" />
        </mxCell>
        <mxCell id="9ifA0DVTPysndAkpjfLu-3" value="1.5.2.2 Interim document" style="rounded=0;whiteSpace=wrap;html=1;" vertex="1" parent="1">
          <mxGeometry x="1183" y="569" width="110" height="50" as="geometry" />
        </mxCell>
        <mxCell id="9ifA0DVTPysndAkpjfLu-4" value="1.5.2.2 Backlog document" style="rounded=0;whiteSpace=wrap;html=1;" vertex="1" parent="1">
          <mxGeometry x="1183" y="630" width="110" height="50" as="geometry" />
        </mxCell>
        <mxCell id="9ifA0DVTPysndAkpjfLu-5" value="1.5.2.2 Final document" style="rounded=0;whiteSpace=wrap;html=1;" vertex="1" parent="1">
          <mxGeometry x="1183" y="689" width="110" height="50" as="geometry" />
        </mxCell>
        <mxCell id="9ifA0DVTPysndAkpjfLu-6" style="edgeStyle=orthogonalEdgeStyle;rounded=0;orthogonalLoop=1;jettySize=auto;html=1;exitX=0.25;exitY=1;exitDx=0;exitDy=0;entryX=0.001;entryY=0.596;entryDx=0;entryDy=0;entryPerimeter=0;" edge="1" parent="1" source="M0RcoXF8gDmWCO9cIfVg-86" target="9ifA0DVTPysndAkpjfLu-2">
          <mxGeometry relative="1" as="geometry">
            <Array as="points">
              <mxPoint x="1163" y="499" />
              <mxPoint x="1163" y="540" />
            </Array>
          </mxGeometry>
        </mxCell>
      </root>
    </mxGraphModel>
  </diagram>
</mxfile>
